<?xml version="1.0" encoding="UTF-8"?>
<svg width="86" height="86" viewBox="0 0 86 86" xmlns="http://www.w3.org/2000/svg">
  <!-- mask=0011 去掉2个圆缺: TLTR -->
  <defs>
    <clipPath id="shape" clipPathUnits="userSpaceOnUse">
      <path d="M 0 0 L 86.0 0 L 86.0 86.0 L 0 86.0 Z M 0 43 A 43.0 43.0 0 0 1 43.0 0.0 L 0 0 Z M 43 0 A 43.0 43.0 0 0 1 86.0 43.0 L 86 0 Z" clip-rule="evenodd"/>
    </clipPath>
    <linearGradient id="bg" x1="0" y1="0" x2="1" y2="1">
      <stop offset="0" stop-color="#22d3ee"/>
      <stop offset="0.55" stop-color="#0891b2"/>
      <stop offset="1" stop-color="#164e63"/>
    </linearGradient>
    <linearGradient id="band" x1="0" y1="0" x2="1" y2="0">
      <stop offset="0" stop-color="#FFFFFF" stop-opacity="0.45"/>
      <stop offset="0.5" stop-color="#FFFFFF" stop-opacity="0.08"/>
      <stop offset="1" stop-color="#FFFFFF" stop-opacity="0"/>
    </linearGradient>
    <radialGradient id="glow" cx="0.25" cy="0.25" r="0.6">
      <stop offset="0" stop-color="#cffafe" stop-opacity="0.8"/>
      <stop offset="1" stop-color="#67e8f9" stop-opacity="0"/>
    </radialGradient>
    <linearGradient id="hi" x1="0" y1="0" x2="1" y2="1">
      <stop offset="0" stop-color="#FFFFFF" stop-opacity="0.55"/>
      <stop offset="0.5" stop-color="#FFFFFF" stop-opacity="0.12"/>
      <stop offset="1" stop-color="#FFFFFF" stop-opacity="0"/>
    </linearGradient>
  </defs>
  <path d="M 0 0 L 86.0 0 L 86.0 86.0 L 0 86.0 Z M 0 43 A 43.0 43.0 0 0 1 43.0 0.0 L 0 0 Z M 43 0 A 43.0 43.0 0 0 1 86.0 43.0 L 86 0 Z" fill="#000000" fill-rule="evenodd"/>
  <g clip-path="url(#shape)">
    <rect width="86" height="86" fill="url(#bg)"/>
    <rect width="86" height="86" fill="url(#glow)"/>
    <rect x="-20" y="28" width="126" height="30" fill="url(#band)" transform="rotate(-45 43 43)"/>
    <g fill="none" stroke="#ffffff" stroke-opacity="0.18" stroke-width="0.8">
      <path d="M 0 10 L 86 40"/>
      <path d="M 0 30 L 86 60"/>
      <path d="M 0 50 L 86 80"/>
      <path d="M 0 70 L 86 100"/>
      <path d="M 12 0 L 42 86"/>
      <path d="M 32 0 L 62 86"/>
      <path d="M 52 0 L 82 86"/>
    </g>
    <g fill="#ffffff" opacity="0.22">
      <circle cx="16" cy="16" r="5"/>
      <circle cx="38" cy="70" r="4"/>
      <circle cx="70" cy="26" r="6"/>
      <circle cx="60" cy="60" r="3.5"/>
    </g>
    <rect width="86" height="86" fill="url(#hi)"/>
  </g>
</svg>
