<?xml version="1.0" encoding="UTF-8"?>
<svg width="86" height="86" viewBox="0 0 86 86" xmlns="http://www.w3.org/2000/svg">
  <defs>
    <clipPath id="shape">
      <path d="M 0 0 L 86.0 0 L 86.0 86.0 L 0 86.0 Z M 0 43 A 43.0 43.0 0 0 1 43.0 0.0 L 0 0 Z M 43 0 A 43.0 43.0 0 0 1 86.0 43.0 L 86 0 Z M 86 43 A 43.0 43.0 0 0 1 43.0 86.0 L 86 86 Z" fill-rule="evenodd"/>
    </clipPath>
    <linearGradient id="bg" x1="0" y1="1" x2="0" y2="0">
      <stop offset="0%" stop-color="#FF5722"/>
      <stop offset="50%" stop-color="#FF9800"/>
      <stop offset="100%" stop-color="#FFC107"/>
    </linearGradient>
    <radialGradient id="flameGlow" cx="0.35" cy="0.75" r="0.5">
      <stop offset="0%" stop-color="#FFF3E0" stop-opacity="0.85"/>
      <stop offset="100%" stop-color="#FFF3E0" stop-opacity="0"/>
    </radialGradient>
  </defs>
  <g clip-path="url(#shape)">
    <rect width="86" height="86" fill="url(#bg)"/>
    <g stroke="#FFEB3B" stroke-width="1.3" fill="none" opacity="0.7">
      <path d="M 30 78 C 18 62 26 48 34 42 C 30 52 34 58 42 60 C 38 54 40 46 46 38 C 50 48 48 58 54 64 C 48 68 44 74 42 84"/>
      <path d="M 22 84 C 14 72 18 60 28 52"/>
      <path d="M 52 84 C 60 74 58 64 52 58"/>
    </g>
    <circle cx="30" cy="66" r="22" fill="url(#flameGlow)"/>
  </g>
</svg>
