<?xml version="1.0" encoding="UTF-8"?>
<svg width="86" height="86" viewBox="0 0 86 86" xmlns="http://www.w3.org/2000/svg">
  <defs>
    <clipPath id="clip-shape8"><path d="M 0 0 L 86.0 0 L 86.0 86.0 L 0 86.0 Z M 0 43 A 43.0 43.0 0 0 1 43.0 0.0 L 0 0 Z M 43 0 A 43.0 43.0 0 0 1 86.0 43.0 L 86 0 Z M 43 86 A 43.0 43.0 0 0 1 0.0 43.0 L 0 86 Z" clip-rule="evenodd"/></clipPath>
    <linearGradient id="base8" x1="0" y1="0" x2="1" y2="1">
      <stop offset="0" stop-color="#FF8A3D"/>
      <stop offset="0.45" stop-color="#FF5E3A"/>
      <stop offset="1" stop-color="#C41E45"/>
    </linearGradient>
    <linearGradient id="facet8a" x1="0" y1="0" x2="1" y2="1">
      <stop offset="0" stop-color="#FFFFFF" stop-opacity="0.5"/>
      <stop offset="1" stop-color="#FFFFFF" stop-opacity="0.06"/>
    </linearGradient>
    <linearGradient id="facet8b" x1="0" y1="0" x2="1" y2="1">
      <stop offset="0" stop-color="#5E0E28" stop-opacity="0.5"/>
      <stop offset="1" stop-color="#5E0E28" stop-opacity="0.1"/>
    </linearGradient>
    <radialGradient id="glow8" cx="0.5" cy="0.45" r="0.6">
      <stop offset="0" stop-color="#FFD9A6" stop-opacity="0.5"/>
      <stop offset="1" stop-color="#FFD9A6" stop-opacity="0"/>
    </radialGradient>
    <radialGradient id="hl8" cx="0.25" cy="0.25" r="0.6">
      <stop offset="0" stop-color="#FFFFFF" stop-opacity="0.55"/>
      <stop offset="1" stop-color="#FFFFFF" stop-opacity="0"/>
    </radialGradient>
  </defs>
  <path d="M 0 0 L 86.0 0 L 86.0 86.0 L 0 86.0 Z M 0 43 A 43.0 43.0 0 0 1 43.0 0.0 L 0 0 Z M 43 0 A 43.0 43.0 0 0 1 86.0 43.0 L 86 0 Z M 43 86 A 43.0 43.0 0 0 1 0.0 43.0 L 0 86 Z" fill="url(#base8)" fill-rule="evenodd"/>
  <g clip-path="url(#clip-shape8)">
    <polygon points="0,86 86,0 86,43 43,86" fill="url(#facet8a)"/>
    <polygon points="0,86 43,43 43,86" fill="url(#facet8b)"/>
    <polygon points="43,43 86,0 43,0" fill="url(#facet8b)"/>
    <polygon points="0,0 43,0 43,43 0,43" fill="url(#facet8b)"/>
    <polygon points="43,43 86,43 86,86 43,86" fill="url(#facet8a)"/>
    <path d="M 0 43 L 86 43 M 43 0 L 43 86 M 0 86 L 86 0" stroke="#FFE3C4" stroke-opacity="0.55" stroke-width="1.2" fill="none"/>
    <path d="M 0 64.5 L 43 43 L 21.5 86 M 64.5 0 L 43 43 L 86 21.5" stroke="#FFE3C4" stroke-opacity="0.3" stroke-width="0.8" fill="none"/>
    <circle cx="43" cy="43" r="30" fill="url(#glow8)"/>
    <rect x="0" y="0" width="86" height="86" fill="url(#hl8)"/>
  </g>
</svg>
